<svg width="69" height="53" viewBox="0 0 69 53" fill="none" xmlns="http://www.w3.org/2000/svg">
<path d="M2.4624 0C2.46054 0 2.45845 0 2.45659 0C1.804 0 1.1902 0.255769 0.726709 0.720591C0.258112 1.19055 0 1.81631 0 2.48248V39.7068C0 41.0718 1.10888 42.1851 2.47216 42.1886C8.21939 42.2024 17.8483 43.4067 24.4909 50.3956V11.4393C24.4909 10.9766 24.3733 10.5419 24.1515 10.1822C18.6995 1.35476 8.22264 0.0135476 2.4624 0Z" transform="translate(8.09253)" fill="#2E5695"/>
<path d="M24.4907 39.707V2.48248C24.4907 1.81631 24.2326 1.19055 23.764 0.720591C23.3005 0.255769 22.6862 0 22.0343 0C22.0322 0 22.0301 0 22.0283 0C16.2683 0.0137812 5.79137 1.35499 0.339191 10.1824C0.117322 10.5421 0 10.9768 0 11.4395V50.3956C6.64261 43.4067 16.2715 42.2024 22.0187 42.1886C23.3818 42.1851 24.4907 41.0718 24.4907 39.707Z" transform="translate(36.417)" fill="#2E5695"/>
<path d="M26.6919 0H24.9016V31.1223C24.9016 34.6075 22.0773 37.4495 18.6054 37.4581C13.7306 37.4698 5.69264 38.4282 0 43.8451C9.84543 41.4215 20.2243 42.997 26.1392 44.3522C26.8778 44.5213 27.641 44.3466 28.2327 43.8724C28.8224 43.3994 29.1606 42.6924 29.1606 41.9335V2.48201C29.1608 1.11347 28.0531 0 26.6919 0Z" transform="translate(39.8394 8.58496)" fill="#2E5695"/>
<path d="M4.25896 31.1223V0H2.46868C1.10772 0 0 1.11347 0 2.48201V41.9328C0 42.6919 0.338264 43.3987 0.927902 43.8717C1.51917 44.3457 2.28165 44.5211 3.02137 44.3515C8.93634 42.9961 19.3154 41.4208 29.1604 43.8444C23.468 38.4277 15.43 37.4696 10.5552 37.4579C7.08356 37.4495 4.25896 34.6075 4.25896 31.1223Z" transform="translate(0 8.58496)" fill="#2E5695"/>
</svg>
