<svg width="63" height="63" viewBox="0 0 63 63" fill="none" xmlns="http://www.w3.org/2000/svg">
<path d="M62.2071 54.1315L47.0799 38.5489C45.9951 37.4309 44.6393 36.9834 44.052 37.5549C43.4626 38.1224 42.1059 37.676 41.0211 36.558L40.8048 36.3343C47.5752 27.4554 46.9181 14.7427 38.7879 6.63586C29.9145 -2.21195 15.5273 -2.21195 6.65505 6.63586C-2.21835 15.4837 -2.21835 29.8273 6.65505 38.6751C14.9238 46.9211 27.9745 47.4734 36.8974 40.3515L36.9923 40.4503C38.075 41.5682 38.4784 42.9342 37.8871 43.5026C37.2987 44.0712 37.699 45.4381 38.7849 46.554L53.904 62.1427C54.9888 63.2577 56.7761 63.2909 57.8984 62.2083L62.1415 58.1146C63.2596 57.0346 63.2899 55.2535 62.2071 54.1315ZM33.7948 33.696C27.6885 39.7857 17.7517 39.7857 11.6463 33.6981C5.54 27.6094 5.54092 17.7001 11.6463 11.6125C17.7517 5.52384 27.6885 5.52476 33.7927 11.6135C39.8999 17.7012 39.8999 27.6084 33.7948 33.696Z" fill="#2E5695"/>
</svg>
