<svg xmlns="http://www.w3.org/2000/svg" viewBox="0 0 24 24"><path fill="#fff" d="M12.983 2.7c.815-.953 2.18-1.653 3.317-1.7a.181.181 0 0 1 .186.16c.132 1.203-.304 2.545-1.166 3.59-.819.991-2.018 1.606-3.13 1.606a3 3 0 0 1-.233-.009.18.18 0 0 1-.165-.156c-.178-1.349.498-2.687 1.191-3.49zM5.318 20.184c-2.057-2.97-3.24-7.868-1.38-11.095.978-1.702 2.753-2.776 4.63-2.804h.057c.808 0 1.57.302 2.243.57.503.199.938.372 1.273.372.298 0 .73-.17 1.23-.368.725-.286 1.627-.641 2.569-.641.12 0 .24.005.357.017.802.035 2.794.32 4.093 2.223a.18.18 0 0 1-.051.253l-.018.01c-.378.234-2.26 1.523-2.236 3.956.026 2.996 2.503 4.094 2.786 4.21l.013.006a.18.18 0 0 1 .096.22l-.007.02a12.133 12.133 0 0 1-1.514 3.103c-.87 1.268-1.854 2.707-3.457 2.737-.747.014-1.254-.206-1.745-.418l-.004-.002c-.5-.216-1.016-.44-1.826-.44-.852 0-1.394.231-1.919.455-.467.199-.951.405-1.62.432a2.134 2.134 0 0 1-.08.001c-1.424 0-2.464-1.333-3.49-2.817z"/></svg>