<?xml version="1.0" encoding="utf-8"?>
<svg version="1.1" x="0px" y="0px" viewBox="0 0 1000 1000" enable-background="new 0 0 1000 1000" xmlns="http://www.w3.org/2000/svg">
 <g>
  <path d="M896.1,809.4c-25.9-10.7-47.2-27.3-45.7-59.5c1.5-32-22.9-53.2-22.9-53.2s21.4-70.1,1.5-128c-19.8-58-85.3-150.8-135.6-220.9c-50.1-70.1-7.5-150.8-53.2-254.4C594.4-10,475.6-4,411.6,40.2c-64.1,44.1-44.3,153.8-41.2,205.7c3,51.7,1.4,88.6-4.5,102c-6.1,13.4-47.2,62.5-74.6,103.6c-27.4,41.1-47.2,126.4-67.1,161.4c-19.8,35.1-6.1,67-6.1,67s-13.7,4.5-24.4,27.5c-10.7,22.7-31.9,33.4-70,40.9c-38.1,7.6-38.1,32.1-29,59.6c9.2,27.3,0,42.7-10.7,77.7c-10.7,35,42.6,45.7,94.4,51.7c51.8,6.2,109.7,39.7,158.5,45.7c48.7,6.1,64-33.5,64-33.5s54.8-12.2,112.6-13.7c57.9-1.6,112.6,12.1,112.6,12.1s10.7,24.4,30.5,35c19.9,10.7,62.5,12.2,89.9-16.7c27.4-29,100.6-65.5,141.6-88.3C929.6,854.9,922,819.9,896.1,809.4z M539.6,137.6c26.2,0,47.2,25.9,47.2,57.8c0,22.7-10.6,42.2-26.1,51.7c-3.9-1.8-8-3.4-12.4-5.4c9.3-4.6,15.9-16.5,15.9-30.3c0-18-11.2-32.6-24.9-32.6c-13.6,0-24.8,14.7-24.8,32.6c0,6.7,1.6,13,4.3,18.3c-8.1-3.2-15.6-6.3-21.5-8.4c-3.1-7.7-5-16.6-5-26C492.4,163.5,513.5,137.6,539.6,137.6z M536.2,259.6c13,4.5,27.6,13,26.1,21.4c-1.6,8.4-8.4,8.4-26.1,19.3c-17.7,10.7-56,34.5-68.3,36c-12.3,1.6-19.2-5.4-32.2-13.8c-13-8.4-37.6-28.5-31.4-39.2c0,0,19.1-14.7,27.5-22.3c8.4-7.7,30-26.1,43-23.7C487.8,239.5,523.2,255,536.2,259.6z M418.5,146.8c20.6,0,37.3,24.5,37.3,54.8c0,5.6-0.6,10.7-1.6,15.7c-5,1.8-10.1,4.5-15.1,8.6c-2.5,2.1-4.7,4-6.9,5.9c3.2-6.1,4.6-14.8,3.1-24c-2.7-16.6-13.8-28.6-24.7-26.8c-10.9,1.9-17.4,16.7-14.7,33.4c2.8,16.7,13.8,28.7,24.7,26.8c0.6-0.1,1.2-0.3,1.9-0.5c-5.3,5.1-10.2,9.5-15.2,13.2c-15.1-7-26.2-27.8-26.2-52.4C381.3,171.3,397.9,146.8,418.5,146.8z M378.3,916.4c-4.9,21.8-30.5,37.7-30.5,37.7c-23.2,7.2-87.7-20.7-116.8-32.9c-29.2-12.1-103.4-15.9-113.2-26.7c-9.7-11.1,4.9-35.4,8.6-58.4c3.6-23.2-7.2-37.7-3.7-53.6c3.7-15.8,51.1-15.8,69.3-26.7c18.3-11,21.9-42.6,36.5-51.1c14.6-8.6,41.3,21.8,52.3,39c11,16.9,52.3,90,69.3,108.2C367.4,870.1,383.1,894.6,378.3,916.4z M647.7,704.2c-4.4,21.5-4.4,99-4.4,99s-47.2,65.4-120.4,76.1c-73.1,10.7-109.7,3-109.7,3l-41.1-47.2c0,0,31.9-4.6,27.4-36.6c-4.6-31.9-97.5-76.2-114.2-115.8c-16.7-39.6-3-106.7,18.3-140.2c21.3-33.5,35-106.6,56.3-131c21.4-24.3,38-76.1,30.5-98.9c0,0,45.7,54.9,77.7,45.7c31.9-9.2,103.6-62.5,114.2-53.3c10.7,9.2,102.1,210.2,111.1,274.2c9.2,64-6.1,112.6-6.1,112.6S652.2,682.8,647.7,704.2z M881.5,847.7c-14.2,13-93.4,45.1-117.1,69.9c-23.6,24.8-54.5,44.9-73.4,39c-19-6-35.6-31.9-27.2-69.9c8.2-37.8,15.4-79.2,14.2-102.9c-1.2-23.7-6-55.7,0-60.4c5.9-4.6,15.3-2.3,15.3-2.3s-4.6,44.9,22.5,56.8c27.1,11.8,66.2-4.7,78.1-16.7c11.9-11.8,20.2-29.5,20.2-29.5s11.8,6,10.7,24.9c-1.2,18.9,8.2,46.2,26.1,55.6C868.4,821.6,895.7,834.6,881.5,847.7z" style="fill: rgb(255, 255, 255);"/>
 </g>
</svg>