<svg width="30" height="30" viewBox="0 0 30 30" fill="none" xmlns="http://www.w3.org/2000/svg">
<path d="M9.98449 1.70011C10.8005 0.747107 12.1671 0.0471067 13.3054 0.000106655C13.3509 -0.00145294 13.3953 0.0141389 13.4298 0.0437832C13.4643 0.0734274 13.4864 0.114953 13.4916 0.160107C13.6238 1.36311 13.1873 2.70511 12.3243 3.75011C11.5043 4.74111 10.3039 5.35611 9.19055 5.35611C9.1127 5.35613 9.03489 5.35313 8.95728 5.34711C8.91599 5.34401 8.87703 5.32682 8.84694 5.29841C8.81686 5.27 8.79748 5.23211 8.79208 5.19111C8.61387 3.84211 9.29067 2.50411 9.98449 1.70111V1.70011ZM2.31043 19.1841C0.250996 16.2141 -0.933402 11.3161 0.928796 8.08911C1.90795 6.38711 3.68505 5.31311 5.56427 5.28511H5.62134C6.43029 5.28511 7.19319 5.58711 7.86699 5.85511C8.37058 6.05411 8.8061 6.22711 9.14149 6.22711C9.43985 6.22711 9.87236 6.05711 10.3729 5.85911C11.0988 5.57311 12.0019 5.21811 12.945 5.21811C13.0651 5.21811 13.1853 5.22311 13.3024 5.23511C14.1054 5.27011 16.0997 5.55511 17.4002 7.45811C17.4139 7.47796 17.4233 7.50034 17.4281 7.52391C17.433 7.54749 17.433 7.57179 17.4282 7.59538C17.4235 7.61897 17.414 7.64136 17.4004 7.66124C17.3869 7.68111 17.3694 7.69807 17.3492 7.71111L17.3312 7.72111C16.9527 7.95511 15.0685 9.24411 15.0925 11.6771C15.1185 14.6731 17.5985 15.7711 17.8818 15.8871L17.8948 15.8931C17.9351 15.9115 17.9672 15.9442 17.985 15.9848C18.0027 16.0254 18.0048 16.071 17.9909 16.1131L17.9839 16.1331C17.6294 17.2343 17.1189 18.2792 16.4681 19.2361C15.5971 20.5041 14.612 21.9431 13.0071 21.9731C12.2592 21.9871 11.7516 21.7671 11.26 21.5551L11.256 21.5531C10.7554 21.3371 10.2388 21.1131 9.42783 21.1131C8.57482 21.1131 8.03218 21.3441 7.50656 21.5681C7.03901 21.7671 6.55444 21.9731 5.88465 22.0001C5.85796 22.0009 5.83126 22.0013 5.80455 22.0011C4.37887 22.0011 3.33764 20.6681 2.31043 19.1841V19.1841Z" transform="translate(6 3)" fill="#1D4583"/>
</svg>
