<svg width="28" height="34" viewBox="0 0 28 34" fill="none" xmlns="http://www.w3.org/2000/svg">
<path d="M1.95749 0C3.03864 0 3.91511 0.900191 3.91511 2.01061V10.6356C3.91511 11.746 3.03864 12.646 1.95749 12.646C0.87647 12.646 0 11.746 0 10.6356V2.01061C0 0.900332 0.87647 0.000142184 1.95749 0.000142184V0Z" transform="translate(7.62671 21.354)" fill="#1D4583"/>
<path d="M0.0120965 0C0.00563566 0.0762396 0 0.153326 0 0.23126V13.2989C0 14.7042 1.08308 15.8364 2.42761 15.8364H15.3663C16.7109 15.8364 17.794 14.7041 17.794 13.2989V0.23126C17.794 0.153326 17.7913 0.0759572 17.7849 0H0.0120965Z" transform="translate(5.10303 10.9844)" fill="#1D4583"/>
<path d="M16.294 0L14.2289 3.67362M0 0L2.06498 3.67362L0 0Z" transform="translate(5.85303 2)" stroke="#1D4583" stroke-width="3" stroke-linecap="round" stroke-linejoin="round"/>
<path fill-rule="evenodd" clip-rule="evenodd" d="M20.3735 20.9771C20.3735 19.8667 19.497 18.9668 18.4159 18.9668C17.3349 18.9668 16.4584 19.8667 16.4584 20.9771V29.6021C16.4584 30.7124 17.3349 31.6128 18.4159 31.6128C19.497 31.6128 20.3735 30.7124 20.3735 29.6021V20.9771ZM3.9151 11.7705C3.9151 10.6602 3.03864 9.75977 1.95763 9.75977C0.876328 9.75977 -0.000137313 10.6602 1.61359e-08 11.7705V20.3955C1.61359e-08 21.5059 0.876465 22.4062 1.95763 22.4062C3.03864 22.4062 3.9151 21.5059 3.9151 20.3955V11.7705ZM28 11.7705C28 10.6602 27.1235 9.75977 26.0425 9.75977C24.9614 9.75977 24.0849 10.6602 24.0849 11.7705V20.3955C24.0849 21.5059 24.9614 22.4062 26.0425 22.4062C27.1235 22.4062 28 21.5059 28 20.3955V11.7705ZM13.0162 0C8.63768 0.433594 5.22665 3.72461 5.17221 7.73877H22.8275C22.7731 3.7251 19.3623 0.434082 14.9836 0H13.0162ZM10.3602 5.16016C10.9197 5.15869 11.3718 4.70264 11.3702 4.14111V4.13574C11.3685 3.57422 10.9138 3.12109 10.3546 3.12256C9.79526 3.12402 9.34314 3.58008 9.34465 4.14111V4.14697C9.3463 4.70801 9.80104 5.16162 10.3602 5.16016ZM17.9202 5.16016C18.4797 5.15869 18.9318 4.70264 18.9301 4.14111V4.13574C18.9285 3.57422 18.4738 3.12109 17.9146 3.12256C17.3552 3.12402 16.9031 3.58008 16.9046 4.14111V4.14697C16.9063 4.70801 17.361 5.16162 17.9202 5.16016Z" transform="translate(0 2.3877)" fill="#1D4583"/>
</svg>
