<svg width="1421" height="752" viewBox="0 0 1421 752" fill="none" xmlns="http://www.w3.org/2000/svg">
<path d="M1069.56 0H1164.55C1285.56 24.1194 1404.61 54.7575 1522.37 91.2625C1253.03 106.908 962.867 175.354 769.643 376.784C433.941 752.264 284.957 1277.02 374.087 1773.75C284.306 1750.94 192.573 1732.68 101.491 1714.43C66.3598 1650.55 32.5293 1586.66 0 1521.48V1080.16C69.6127 1160.34 130.117 1247.69 180.212 1341.56C243.319 979.768 441.097 666.868 620.659 354.62C354.569 531.93 232.259 826.578 85.2267 1096.45C42.9387 926.315 156.791 770.516 247.223 636.882C477.53 374.828 723.451 101.041 1069.56 0Z" transform="translate(-606 752) scale(1 -1)" fill="#2E5695"/>
<path d="M1063.06 0H1425.43C1660.3 140.805 1929.64 349.405 1919.88 653.179C1965.42 1053.43 1727.96 1420.44 1447.55 1682.49C1292.06 1851.98 1106 1989.52 897.158 2086H376.689C229.006 1987.57 81.3232 1876.75 0 1714.43C91.082 1732.68 182.815 1750.94 272.595 1773.75C442.398 1893.7 638.875 2048.19 858.773 1958.23C1319.39 1782.23 1623.21 1311.57 1696.73 836.356C1724.05 571.042 1731.21 191.651 1420.88 91.2625C1303.12 54.7575 1184.07 24.1194 1063.06 0Z" transform="translate(-504.507 752) scale(1 -1)" fill="#2E5695"/>
<path d="M1173.65 0C1483.98 100.389 1476.83 479.78 1449.5 745.093C1375.99 1220.31 1072.16 1690.96 611.548 1866.97C391.65 1956.93 195.173 1802.43 25.3698 1682.49C-63.7604 1185.76 85.2237 661.001 420.926 285.521C614.15 84.0919 904.311 15.645 1173.65 0Z" transform="translate(-257.284 660.734) scale(1 -1)" fill="#1D4583"/>
<path d="M130.117 228.914C358.473 -38.3552 811.281 -100.283 1040.94 198.276C1008.41 449.899 908.869 683.27 811.931 915.338C714.994 920.553 618.057 925.116 521.119 930.983C584.877 843.632 649.935 756.281 714.343 669.581C618.057 638.291 521.77 607.001 426.134 573.104C476.88 485.752 530.227 399.053 583.576 312.354C575.118 283.019 557.552 224.35 548.444 194.364C437.844 213.269 326.594 229.565 215.344 247.818C302.522 428.387 395.556 607.001 453.458 799.956C397.508 799.956 284.957 799.956 229.006 800.608C314.884 947.28 441.748 1052.23 603.744 1106.99C263.487 1135.02 48.7939 828.639 0 524.865C33.1799 524.865 98.8891 524.213 132.069 524.213C91.0821 430.343 31.2281 311.702 130.117 228.914Z" transform="translate(-37.3882 147.811) scale(1 -1)" fill="#2E5695"/>
</svg>
