<?xml version="1.0" encoding="UTF-8" standalone="no"?>
<svg
   xmlns:dc="http://purl.org/dc/elements/1.1/"
   xmlns:cc="http://creativecommons.org/ns#"
   xmlns:rdf="http://www.w3.org/1999/02/22-rdf-syntax-ns#"
   xmlns:svg="http://www.w3.org/2000/svg"
   xmlns="http://www.w3.org/2000/svg"
   xmlns:sodipodi="http://sodipodi.sourceforge.net/DTD/sodipodi-0.dtd"
   xmlns:inkscape="http://www.inkscape.org/namespaces/inkscape"
   width="32pt"
   height="32pt"
   viewBox="0 0 32 32"
   version="1.1"
   id="svg2"
   inkscape:version="0.48.2 r9819"
   sodipodi:docname="Wineskin.svg">
  <metadata
     id="metadata22">
    <rdf:RDF>
      <cc:Work
         rdf:about="">
        <dc:format>image/svg+xml</dc:format>
        <dc:type
           rdf:resource="http://purl.org/dc/dcmitype/StillImage" />
      </cc:Work>
    </rdf:RDF>
  </metadata>
  <defs
     id="defs20" />
  <sodipodi:namedview
     pagecolor="#ffffff"
     bordercolor="#666666"
     borderopacity="1"
     objecttolerance="10"
     gridtolerance="10"
     guidetolerance="10"
     inkscape:pageopacity="0"
     inkscape:pageshadow="2"
     inkscape:window-width="786"
     inkscape:window-height="729"
     id="namedview18"
     showgrid="false"
     inkscape:zoom="11.8"
     inkscape:cx="13.220339"
     inkscape:cy="20"
     inkscape:window-x="643"
     inkscape:window-y="0"
     inkscape:window-maximized="0"
     inkscape:current-layer="svg2" />
  <path
     fill="#1d4583"
     d=" M 16.44 0.00 L 17.90 0.00 C 19.76 0.37 21.59 0.84 23.40 1.40 C 19.26 1.64 14.80 2.69 11.83 5.78 C 6.67 11.54 4.38 19.59 5.75 27.21 C 4.37 26.86 2.96 26.58 1.56 26.30 C 1.02 25.32 0.50 24.34 0.00 23.34 L 0.00 16.57 C 1.07 17.80 2.00 19.14 2.77 20.58 C 3.74 15.03 6.78 10.23 9.54 5.44 C 5.45 8.16 3.57 12.68 1.31 16.82 C 0.66 14.21 2.41 11.82 3.80 9.77 C 7.34 5.75 11.12 1.55 16.44 0.00 Z"
     id="path6" />
  <path
     fill="#2b3632"
     d=" M 17.90 0.00 L 23.47 0.00 C 27.08 2.16 31.22 5.36 31.07 10.02 C 31.77 16.16 28.12 21.79 23.81 25.81 C 21.42 28.41 18.56 30.52 15.35 32.00 L 7.35 32.00 C 5.08 30.49 2.81 28.79 1.56 26.30 C 2.96 26.58 4.37 26.86 5.75 27.21 C 8.36 29.05 11.38 31.42 14.76 30.04 C 21.84 27.34 26.51 20.12 27.64 12.83 C 28.06 8.76 28.17 2.94 23.40 1.40 C 21.59 0.84 19.76 0.37 17.90 0.00 Z"
     id="path8" />
  <path
     fill="#ffffff"
     d=" M 23.40 1.40 C 28.17 2.94 28.06 8.76 27.64 12.83 C 26.51 20.12 21.84 27.34 14.76 30.04 C 11.38 31.42 8.36 29.05 5.75 27.21 C 4.38 19.59 6.67 11.54 11.83 5.78 C 14.80 2.69 19.26 1.64 23.40 1.40 Z"
     id="path12" />
  <path
     fill="#1d4583"
     d=" M 10.74 12.78 C 14.25 8.68 21.21 7.73 24.74 12.31 C 24.24 16.17 22.71 19.75 21.22 23.31 C 19.73 23.39 18.24 23.46 16.75 23.55 C 17.73 22.21 18.73 20.87 19.72 19.54 C 18.24 19.06 16.76 18.58 15.29 18.06 C 16.07 16.72 16.89 15.39 17.71 14.06 C 17.58 13.61 17.31 12.71 17.17 12.25 C 15.47 12.54 13.76 12.79 12.05 13.07 C 13.39 15.84 14.82 18.58 15.71 21.54 C 14.85 21.54 13.12 21.54 12.26 21.55 C 13.58 23.80 15.53 25.41 18.02 26.25 C 12.79 26.68 9.49 21.98 8.74 17.32 C 9.25 17.32 10.26 17.31 10.77 17.31 C 10.14 15.87 9.22 14.05 10.74 12.78 Z"
     id="path14" />
</svg>
