<svg width="66" height="68" viewBox="0 0 66 68" fill="none" xmlns="http://www.w3.org/2000/svg">
<path d="M34.8255 0H37.9182C41.8583 0.78625 45.7349 1.785 49.5691 2.975C40.7992 3.485 31.3514 5.71625 25.0599 12.2825C14.1293 24.5225 9.27832 41.6287 12.1804 57.8213C9.25713 57.0775 6.27028 56.4825 3.30461 55.8875C2.1607 53.805 1.05917 51.7225 0 49.5975V35.2113C2.26662 37.825 4.23667 40.6725 5.86779 43.7325C7.92258 31.9388 14.3623 21.7388 20.2089 11.56C11.5449 17.34 7.56246 26.945 2.77502 35.7425C1.3981 30.1963 5.10519 25.1175 8.04968 20.7613C15.5486 12.2188 23.5559 3.29375 34.8255 0Z" fill="#2B3632"/>
<path d="M34.6136 0H46.4128C54.06 4.59 62.8299 11.39 62.5121 21.2925C63.995 34.34 56.263 46.3037 47.133 54.8462C42.0702 60.3713 36.0117 64.855 29.2119 68H12.2652C7.45655 64.7913 2.64792 61.1787 0 55.8875C2.96567 56.4825 5.95253 57.0775 8.87583 57.8212C14.4047 61.7312 20.8021 66.7675 27.9621 63.835C42.9599 58.0975 52.8525 42.755 55.2462 27.2638C56.1359 18.615 56.369 6.2475 46.2645 2.975C42.4303 1.785 38.5537 0.78625 34.6136 0Z" transform="translate(3.30469)" fill="#2B3632"/>
<path d="M38.2147 0C48.3192 3.2725 48.0862 15.64 47.1965 24.2887C44.8027 39.78 34.9101 55.1225 19.9123 60.86C12.7523 63.7925 6.35491 58.7562 0.826053 54.8462C-2.07607 38.6537 2.77492 21.5475 13.7055 9.3075C19.997 2.74125 29.4448 0.51 38.2147 0Z" transform="translate(11.3545 2.9751)" fill="white"/>
<path d="M4.23667 7.46219C11.672 -1.25031 26.4157 -3.26906 33.8934 6.46344C32.8342 14.6659 29.5932 22.2734 26.4368 29.8384C23.2805 30.0084 20.1242 30.1572 16.9679 30.3484C19.0439 27.5009 21.1622 24.6534 23.2593 21.8272C20.1242 20.8072 16.9891 19.7872 13.8751 18.6822C15.5274 15.8347 17.2644 13.0084 19.0015 10.1822C18.7261 9.22594 18.1542 7.31344 17.8576 6.33594C14.2564 6.95219 10.6341 7.48344 7.0117 8.07844C9.85027 13.9647 12.8795 19.7872 14.7648 26.0772C12.943 26.0772 9.27832 26.0772 7.45655 26.0984C10.2528 30.8797 14.3835 34.3009 19.6582 36.0859C8.57927 36.9997 1.58875 27.0122 0 17.1097C1.08035 17.1097 3.21987 17.0884 4.30023 17.0884C2.96567 14.0284 1.0168 10.1609 4.23667 7.46219Z" transform="translate(18.5142 19.6953)" fill="#2B3632"/>
</svg>
