<?xml version="1.0" standalone="no"?>
<!DOCTYPE svg PUBLIC "-//W3C//DTD SVG 20010904//EN"
 "http://www.w3.org/TR/2001/REC-SVG-20010904/DTD/svg10.dtd">
<svg version="1.0" xmlns="http://www.w3.org/2000/svg"
 width="260.000000pt" height="260.000000pt" viewBox="0 0 260.000000 260.000000"
 preserveAspectRatio="xMidYMid meet">
<metadata>
Created by potrace 1.11, written by Peter Selinger 2001-2013
</metadata>
<g transform="translate(0.000000,260.000000) scale(0.100000,-0.100000)"
fill="#000000" stroke="none">
<path d="M1305 2578 c-245 -98 -423 -219 -647 -440 -194 -193 -299 -313 -377
-433 -105 -163 -154 -302 -144 -411 3 -27 6 -50 8 -52 4 -4 46 71 125 223 103
198 182 324 274 440 52 67 196 205 238 230 l33 19 -17 -25 c-9 -14 -42 -72
-75 -128 -32 -56 -63 -110 -68 -119 -165 -276 -316 -623 -366 -838 -17 -76
-17 -78 -18 -99 -1 -12 -17 6 -44 50 -53 85 -111 169 -154 221 l-33 39 0 -276
0 -275 51 -100 c126 -244 194 -336 333 -448 21 -17 54 -43 71 -58 18 -16 35
-28 39 -28 3 0 28 -16 55 -35 l48 -35 328 0 328 0 94 50 c119 63 245 146 348
229 94 75 358 335 430 422 28 34 58 71 68 83 90 104 227 355 276 506 50 157
61 234 57 425 -5 200 -9 226 -52 327 -74 179 -237 348 -492 511 l-73 47 -297
-1 c-273 -1 -301 -2 -347 -21z m709 -122 c93 -46 183 -146 225 -252 45 -116
56 -199 56 -414 -1 -204 -4 -228 -46 -407 -58 -245 -196 -527 -361 -738 -221
-281 -594 -517 -819 -517 -130 -1 -246 46 -442 178 -61 42 -113 77 -115 79 -2
1 -5 15 -8 31 -2 16 -6 38 -9 49 -23 108 -23 445 1 569 2 11 6 38 9 61 31 218
142 515 271 728 48 79 155 231 173 247 4 3 19 21 35 40 90 109 296 236 481
295 96 30 251 61 355 70 41 4 76 8 78 9 10 9 69 -5 116 -28z"/>
<path d="M1380 1830 c-159 -33 -298 -105 -410 -212 -96 -92 -120 -128 -122
-179 -2 -59 9 -111 38 -177 13 -30 24 -58 24 -62 0 -3 -19 -7 -42 -7 -123 -2
-117 0 -112 -30 58 -327 277 -604 534 -676 63 -18 172 -28 188 -18 6 4 -12 15
-40 25 -119 42 -317 208 -376 314 l-23 42 140 0 141 0 -34 93 c-53 146 -93
237 -205 467 l-60 125 32 7 c18 4 50 10 72 13 22 3 65 10 95 15 106 18 115 20
167 26 l52 6 11 -44 c6 -23 15 -56 20 -71 9 -26 2 -42 -62 -145 -39 -65 -84
-138 -99 -164 l-28 -47 172 -57 c95 -31 175 -60 180 -63 4 -4 -1 -16 -10 -27
-10 -10 -61 -77 -113 -149 -52 -71 -99 -134 -105 -138 -5 -5 58 -5 140 -1 83
4 166 7 185 8 l34 2 64 154 c103 252 189 517 206 640 3 19 8 51 12 70 6 34 3
39 -64 102 -155 146 -376 204 -602 158z"/>
</g>
</svg>
