<svg width="67" height="60" viewBox="0 0 67 60" fill="none" xmlns="http://www.w3.org/2000/svg">
<path d="M33.487 0C15.0225 0.085214 0 15.086 0 33.4387C0 39.0123 1.40585 44.5068 4.06431 49.3755V40.5348C4.06431 38.9055 4.64775 37.3942 5.67047 36.0976C5.58583 35.2159 5.54224 34.3285 5.54224 33.4387C5.54224 18.1093 18.0896 5.58019 33.487 5.50902C48.9098 5.57996 61.4572 18.1093 61.4572 33.4387C61.4572 34.4242 61.4022 35.4062 61.2985 36.3816C62.1873 37.6127 62.6893 39.0234 62.6893 40.5348V49.8239C65.5087 44.8458 67 39.1834 67 33.4387C66.9999 15.086 51.9774 0.085214 33.487 0Z" fill="#2E5695"/>
<path d="M0.21686 5.55019C0.0753457 6.01107 0 6.48851 0 6.97795V15.4986V19.4647C0 23.3184 4.61745 26.4427 10.3138 26.4427H12.6563C13.7608 26.4427 14.6563 25.5473 14.6563 24.4427V2C14.6563 0.89543 13.7608 0 12.6563 0H10.3138C5.34084 0 1.19116 2.38095 0.21686 5.55019Z" transform="translate(5.91174 33.5571)" fill="#2E5695"/>
<path d="M14.6563 19.4647V15.3599V6.97795C14.6563 6.67718 14.6249 6.38109 14.5702 6.09028C13.9254 2.65568 9.59387 0 4.34263 0H2C0.895431 0 0 0.895431 0 2V24.4426C0 25.5472 0.895431 26.4426 2 26.4426H4.34263C10.0389 26.4426 14.6563 23.3184 14.6563 19.4647Z" transform="translate(46.1853 33.5571)" fill="#2E5695"/>
</svg>
