<?xml version="1.0" encoding="utf-8"?>
<svg width="32pt" height="32pt" viewBox="0 0 32 32" version="1.1" id="svg2" xmlns="http://www.w3.org/2000/svg">
 <polygon style="stroke: rgb(0, 0, 0); fill: rgb(255, 255, 255); fill-opacity: 0.56;" points="28.651 22.979"/>
 <g>
  <path fill="#1d4583" d="M 16.44 0 L 17.9 0 C 19.76 0.37 21.59 0.84 23.4 1.4 C 19.26 1.64 14.8 2.69 11.83 5.78 C 6.67 11.54 4.38 19.59 5.75 27.21 C 4.37 26.86 2.96 26.58 1.56 26.3 C 1.02 25.32 0.5 24.34 0 23.34 L 0 16.57 C 1.07 17.8 2 19.14 2.77 20.58 C 3.74 15.03 6.78 10.23 9.54 5.44 C 5.45 8.16 3.57 12.68 1.31 16.82 C 0.66 14.21 2.41 11.82 3.8 9.77 C 7.34 5.75 11.12 1.55 16.44 0 Z" id="path6"/>
  <path fill="#2b3632" d="M 17.9 0 L 23.47 0 C 27.08 2.16 31.22 5.36 31.07 10.02 C 31.77 16.16 28.12 21.79 23.81 25.81 C 21.42 28.41 18.56 30.52 15.35 32 L 7.35 32 C 5.08 30.49 2.81 28.79 1.56 26.3 C 2.96 26.58 4.37 26.86 5.75 27.21 C 8.36 29.05 11.38 31.42 14.76 30.04 C 21.84 27.34 26.51 20.12 27.64 12.83 C 28.06 8.76 28.17 2.94 23.4 1.4 C 21.59 0.84 19.76 0.37 17.9 0 Z" id="path8"/>
  <path fill="#ffffff" d="M 23.4 1.4 C 28.17 2.94 28.06 8.76 27.64 12.83 C 26.51 20.12 21.84 27.34 14.76 30.04 C 11.38 31.42 8.36 29.05 5.75 27.21 C 4.38 19.59 6.67 11.54 11.83 5.78 C 14.8 2.69 19.26 1.64 23.4 1.4 Z" id="path12"/>
  <path fill="#1d4583" d="M 10.74 12.78 C 14.25 8.68 21.21 7.73 24.74 12.31 C 24.24 16.17 22.71 19.75 21.22 23.31 C 19.73 23.39 18.24 23.46 16.75 23.55 C 17.73 22.21 18.73 20.87 19.72 19.54 C 18.24 19.06 16.76 18.58 15.29 18.06 C 16.07 16.72 16.89 15.39 17.71 14.06 C 17.58 13.61 17.31 12.71 17.17 12.25 C 15.47 12.54 13.76 12.79 12.05 13.07 C 13.39 15.84 14.82 18.58 15.71 21.54 C 14.85 21.54 13.12 21.54 12.26 21.55 C 13.58 23.8 15.53 25.41 18.02 26.25 C 12.79 26.68 9.49 21.98 8.74 17.32 C 9.25 17.32 10.26 17.31 10.77 17.31 C 10.14 15.87 9.22 14.05 10.74 12.78 Z" id="path14"/>
 </g>
 <path d="M 28.571 29.742 C 28.518 29.742 28.491 29.709 28.491 29.643 L 28.491 29.614 C 28.662 29.43 28.748 29.254 28.748 29.086 C 28.748 28.764 28.41 28.602 27.734 28.602 C 27.062 28.602 26.076 28.688 24.776 28.859 C 23.473 29.03 22.597 29.185 22.149 29.323 C 22.015 29.356 21.947 29.27 21.947 29.066 C 21.947 29.003 21.962 28.946 21.99 28.893 C 22.031 28.7 22.499 28.469 23.396 28.203 C 24.597 27.745 25.728 27.136 26.787 26.372 C 27.842 25.609 28.369 24.886 28.369 24.202 C 28.369 24.034 28.284 23.896 28.112 23.787 C 27.941 23.682 27.638 23.629 27.202 23.629 C 26.766 23.629 26.162 23.743 25.387 23.97 C 24.613 24.2 24.092 24.388 23.823 24.532 C 23.55 24.677 23.388 24.749 23.334 24.749 C 23.245 24.749 23.212 24.7 23.237 24.601 C 23.237 24.368 23.348 24.203 23.573 24.108 C 23.642 24.085 23.788 24.004 24.013 23.866 C 24.619 23.495 24.96 23.309 25.033 23.309 C 25.106 23.309 25.135 23.34 25.119 23.402 C 25.106 23.468 25.021 23.565 24.862 23.693 C 26.129 23.285 27.208 23.082 28.1 23.082 C 28.992 23.082 29.438 23.371 29.438 23.95 C 29.438 23.98 29.438 24.011 29.438 24.044 C 29.414 24.544 29.041 25.106 28.32 25.731 C 27.599 26.356 26.956 26.828 26.389 27.147 C 25.371 27.713 24.485 28.177 23.732 28.538 C 24.143 28.433 24.735 28.333 25.51 28.237 C 26.279 28.139 26.962 28.089 27.556 28.089 C 28.681 28.089 29.243 28.277 29.243 28.652 C 29.243 28.865 29.157 29.101 28.986 29.357 C 28.815 29.614 28.676 29.742 28.571 29.742 Z" style="white-space: pre; stroke-linecap: round; stroke-miterlimit: 1; stroke-linejoin: round; stroke-width: 0.362201px; stroke-opacity: 0.56; fill: rgb(255, 255, 255); fill-opacity: 0.96;"/>
</svg>